<?xml version="1.0" encoding="utf-8"?>
<!-- Generator: Adobe Illustrator 21.1.0, SVG Export Plug-In . SVG Version: 6.00 Build 0)  -->
<svg version="1.1" id="Layer_1" xmlns="http://www.w3.org/2000/svg" xmlns:xlink="http://www.w3.org/1999/xlink" x="0px" y="0px"
	 viewBox="0 0 80 80" style="enable-background:new 0 0 80 80;" xml:space="preserve">
<style type="text/css">
	.st0{fill:#FFFFFF;}
</style>
<path class="st0" d="M33.3,20L20,27.7l0,17.6l0,0C20,53.4,26.5,60,34.6,60c2.7,0,5.2-0.7,7.4-1.9l0,0l10.8-6.2
	C57.1,49.6,60,45.2,60,40l0-18.4l0,0l0,0l-2.6-1.5L46,26.2l0,0l0,0l0,19.2c0,0.8-0.1,1.6-0.2,2.4c-0.2,0.8-0.4,1.5-0.7,2.2
	c-0.1,0.2-0.2,0.4-0.3,0.6c-0.4,0-2.9-0.9-4.2-1.8c-0.6-0.4-1.1-0.8-1.6-1.3c-0.5-0.5-0.9-1-1.3-1.6c-0.4-0.6-0.7-1.2-1-1.8
	c-0.3-0.6-0.5-1.3-0.6-2C36,41.4,36,40.7,36,40l0,0l0-18.4L33.3,20L33.3,20z M39.8,56.2c-0.7,0.3-1.7,0.7-2.5,0.9
	c-0.8,0.2-1.5,0.2-2.3,0.2c-0.8,0-1.6-0.1-2.4-0.3c-0.8-0.2-1.5-0.4-2.2-0.7c-0.7-0.3-1.4-0.7-2-1.1c-1.7-1.2-2.5-2.2-3.2-3.3
	c-0.4-0.6-0.8-1.3-1.1-2c-0.3-0.7-0.5-1.5-0.7-2.3C23,46.9,23,46.1,23,45.3l0-16.1l10-6.1V40h0c0,6.4,4.7,11.8,10.7,13.1
	c-0.2,0.3-0.4,0.6-0.7,0.8C41.9,55,41,55.7,39.8,56.2L39.8,56.2z M56.8,42.2c-0.1,0.7-0.4,1.4-0.6,2c-0.3,0.6-0.6,1.2-1,1.8
	c-0.4,0.6-1.6,2.1-3.2,3c-1.6,0.9-3.1,1.2-4,1.4c0.6-1.6,1-3.2,1-5l0,0V27.7l0,0l8-4.6L57,40C57,40.8,57,41.5,56.8,42.2L56.8,42.2z"
	/>
</svg>
